<svg width="195" height="194" viewBox="0 0 195 194" fill="none" xmlns="http://www.w3.org/2000/svg">
<rect width="195" height="194" rx="40" fill="url(#paint0_linear_7_2)"/>
<path d="M131.056 60.76C134.981 60.76 138.224 60.632 140.784 60.376V62.936C138.651 63.704 136.56 65.3253 134.512 67.8C132.464 70.2747 130.629 73.7307 129.008 78.168L102 151.256C101.061 151.171 99.568 151.128 97.52 151.128C95.5573 151.128 94.1067 151.171 93.168 151.256L60.528 71.128C59.4187 68.312 58.1387 66.264 56.688 64.984C55.2373 63.704 53.8293 63.0213 52.464 62.936V60.376C57.584 60.632 64.0693 60.76 71.92 60.76C80.7093 60.76 87.1947 60.632 91.376 60.376V62.936C88.1333 63.1067 85.8293 63.4907 84.464 64.088C83.0987 64.6853 82.416 65.88 82.416 67.672C82.416 69.1227 82.928 71.128 83.952 73.688L106.48 131.032L122.224 88.536C124.613 81.9653 125.808 76.76 125.808 72.92C125.808 69.5067 124.869 67.032 122.992 65.496C121.2 63.96 118.555 63.1067 115.056 62.936V60.376C120.859 60.632 126.192 60.76 131.056 60.76Z" fill="white"/>
<defs>
<linearGradient id="paint0_linear_7_2" x1="97.5" y1="0" x2="97.5" y2="194" gradientUnits="userSpaceOnUse">
<stop stop-color="#2D2874"/>
<stop offset="1" stop-color="#1E4BDF" stop-opacity="0.88"/>
</linearGradient>
</defs>
</svg>
